<?xml version="1.0" encoding="utf-8"?>
<!-- Generator: Adobe Illustrator 21.0.0, SVG Export Plug-In . SVG Version: 6.00 Build 0)  -->
<svg version="1.1" id="图层_1" xmlns="http://www.w3.org/2000/svg" xmlns:xlink="http://www.w3.org/1999/xlink" x="0px" y="0px"
	 viewBox="0 0 181 164" style="enable-background:new 0 0 181 164;" xml:space="preserve">
<style type="text/css">
	.st0{fill:#0090FF;}
	.st1{fill:#FFFFFF;}
</style>
<g>
	<path class="st0" d="M173,98.1V65.6l-23.5-3.9c-0.6-2.2-1.5-4.4-2.7-6.4L160.8,36L137.8,13L118.4,27c-2-1.1-4.2-2-6.4-2.7
		l-3.9-23.5H75.7l-3.9,23.5c-2.3,0.6-4.4,1.6-6.5,2.7L46.1,13.3L23.2,36.1L37,55.3c-1.1,2-1.9,4.2-2.6,6.4l-23.5,3.9v32.4l23.5,3.9
		c0.7,2.3,1.6,4.5,2.8,6.6l-13.8,19.2l22.9,22.9l19.3-13.9c2,1,4.1,1.9,6.2,2.5l3.9,23.5h32.4l3.9-23.5c2.3-0.7,4.5-1.6,6.6-2.8
		l19.4,13.9l22.9-22.9L147,108.2c1-2,1.9-4.1,2.5-6.2L173,98.1z"/>
	<path class="st0" d="M141.7,99.6c-0.5,1.8-1.3,3.5-2.1,5c-1.3,2.7-1,5.8,0.7,8.2l9.9,13.9L137.1,140l-13.8-9.9
		c-1.4-1-3.1-1.5-4.7-1.5c-1.3,0-2.6,0.3-3.8,1c-1.6,0.8-3.3,1.5-5.2,2.2c-2.9,0.9-5,3.4-5.5,6.4l-2.8,16.7H82.6l-2.8-16.7
		c-0.5-3.1-2.7-5.6-5.7-6.5c-1.8-0.5-3.5-1.3-5-2.1c-1.1-0.5-2.3-0.8-3.5-0.8c-1.7,0-3.3,0.5-4.7,1.5l-13.7,9.8l-13.2-13.2l9.8-13.6
		c1.8-2.5,2-5.8,0.5-8.6c-0.8-1.5-1.5-3.2-2.2-5.3c-0.9-2.9-3.4-5-6.4-5.5L19,91.2l0-18.7l16.7-2.8c3.1-0.5,5.6-2.7,6.5-5.7
		c0.5-1.7,1.2-3.4,2-5c1.4-2.7,1.2-6-0.6-8.5L33.8,37L47,23.8l13.6,9.7c1.4,1,3,1.5,4.7,1.5c1.2,0,2.5-0.3,3.6-0.9
		c1.6-0.8,3.4-1.6,5.1-2.1c3-0.9,5.3-3.4,5.8-6.5l2.8-16.7h18.7l2.8,16.7c0.5,3.1,2.7,5.6,5.7,6.5c1.7,0.5,3.3,1.2,4.8,2
		c1.2,0.7,2.6,1,4,1c1.7,0,3.3-0.5,4.7-1.5l13.8-9.9l13.2,13.2l-9.9,13.8c-1.8,2.6-2,5.9-0.5,8.7c0.8,1.4,1.5,3,2,4.7
		c0.9,3,3.4,5.2,6.5,5.7l16.7,2.8v18.7L148.2,94C145.1,94.5,142.6,96.7,141.7,99.6z"/>
	<path class="st1" d="M90.9,49.4C73,49.4,58.5,64,58.5,81.8c0,17.9,14.5,32.4,32.4,32.4c17.9,0,32.4-14.5,32.4-32.4
		C123.3,64,108.8,49.4,90.9,49.4z"/>
</g>
</svg>
