<?xml version="1.0" encoding="utf-8"?>
<!-- Generator: Adobe Illustrator 21.0.0, SVG Export Plug-In . SVG Version: 6.00 Build 0)  -->
<svg version="1.1" id="图层_1" xmlns="http://www.w3.org/2000/svg" xmlns:xlink="http://www.w3.org/1999/xlink" x="0px" y="0px"
	 viewBox="0 0 181 164" style="enable-background:new 0 0 181 164;" xml:space="preserve">
<style type="text/css">
	.st0{fill:#8A8A8A;}
</style>
<g>
	<path class="st0" d="M89.4,50.1c-17.8,0-32.2,14.5-32.2,32.2c0,17.8,14.5,32.2,32.2,32.2c17.8,0,32.2-14.5,32.2-32.2
		C121.7,64.6,107.2,50.1,89.4,50.1z M89.4,106.5c-13.3,0-24.2-10.8-24.2-24.2c0-13.4,10.8-24.2,24.2-24.2s24.2,10.8,24.2,24.2
		S102.8,106.5,89.4,106.5z"/>
	<path class="st0" d="M170,98.5V66.2l-23.4-3.9c-0.6-2.2-1.5-4.4-2.7-6.4l13.9-19.3L135,13.9l-19.3,13.9c-2-1.1-4.2-2-6.4-2.7
		l-3.9-23.4H73.3l-3.9,23.4c-2.3,0.6-4.4,1.6-6.4,2.7L43.9,14.2L21.1,36.9L34.8,56c-1,2-1.9,4.2-2.6,6.4L8.8,66.2v32.2l23.4,3.9
		c0.7,2.3,1.6,4.5,2.7,6.6L21.3,128l22.8,22.8l19.2-13.8c2,1,4,1.9,6.2,2.5l3.9,23.4h32.2l3.9-23.4c2.3-0.7,4.4-1.6,6.5-2.7
		l19.3,13.9l22.8-22.8l-13.9-19.3c1-2,1.9-4,2.5-6.2L170,98.5z M138.9,100c-0.5,1.8-1.3,3.4-2,5c-1.3,2.7-1,5.8,0.7,8.2l9.9,13.8
		l-13.1,13.1l-13.7-9.9c-1.4-1-3-1.5-4.7-1.5c-1.3,0-2.6,0.3-3.8,1c-1.6,0.8-3.2,1.5-5.2,2.2c-2.9,0.9-5,3.4-5.5,6.4l-2.7,16.6
		l-18.6,0l-2.7-16.6c-0.5-3-2.7-5.5-5.7-6.4c-1.8-0.5-3.4-1.3-5-2c-1.1-0.5-2.3-0.8-3.5-0.8c-1.7,0-3.3,0.5-4.7,1.5l-13.6,9.8
		l-13.1-13.1l9.7-13.5c1.8-2.5,2-5.8,0.5-8.5c-0.8-1.5-1.5-3.2-2.2-5.3c-0.9-2.9-3.4-5-6.4-5.5l-16.6-2.8l0-18.6l16.6-2.7
		c3-0.5,5.5-2.7,6.4-5.7c0.5-1.7,1.2-3.4,2-4.9c1.4-2.7,1.2-5.9-0.6-8.4l-9.7-13.5l13.1-13.1l13.6,9.7c1.4,1,3,1.5,4.7,1.5
		c1.2,0,2.5-0.3,3.6-0.9c1.6-0.8,3.4-1.6,5.1-2.1c3-0.9,5.2-3.4,5.7-6.4l2.7-16.6h18.6l2.7,16.6c0.5,3,2.7,5.5,5.7,6.4
		c1.7,0.5,3.3,1.2,4.7,2c1.2,0.7,2.6,1,3.9,1c1.7,0,3.3-0.5,4.7-1.5l13.7-9.9l13.1,13.1l-9.9,13.7c-1.8,2.5-2,5.9-0.5,8.6
		c0.8,1.4,1.5,3,2,4.7c0.9,3,3.4,5.2,6.4,5.7l16.6,2.7v18.6l-16.6,2.8C142.3,94.9,139.8,97.1,138.9,100z"/>
</g>
</svg>
