<?xml version="1.0" encoding="utf-8"?>
<!-- Generator: Adobe Illustrator 21.0.0, SVG Export Plug-In . SVG Version: 6.00 Build 0)  -->
<svg version="1.1" id="图层_1" xmlns="http://www.w3.org/2000/svg" xmlns:xlink="http://www.w3.org/1999/xlink" x="0px" y="0px"
	 viewBox="0 0 181 164" style="enable-background:new 0 0 181 164;" xml:space="preserve">
<style type="text/css">
	.st0{fill:#0090FF;}
</style>
<g>
	<path class="st0" d="M46.6,10c7.7,0,14.8,3,20.2,8.4c5.4,5.4,8.4,12.6,8.4,20.2v28.6H46.6c-7.6,0-14.8-3-20.2-8.4
		C21,53.5,18,46.3,18,38.6c0-7.6,3-14.8,8.4-20.2C31.8,13,39,10,46.6,10"/>
	<path class="st0" d="M46.6,1C25.9,1,9,17.8,9,38.6c0,20.8,16.8,37.6,37.6,37.6h29.2c4.7,0,8.5-3.8,8.5-8.5V38.6
		C84.3,17.8,67.4,1,46.6,1L46.6,1L46.6,1L46.6,1z"/>
	<path class="st0" d="M46.7,98.2L46.7,98.2h28v28c0,7.5-2.9,14.5-8.2,19.8c-5.3,5.3-12.3,8.2-19.8,8.2c-7.5,0-14.5-2.9-19.8-8.2
		c-5.3-5.3-8.2-12.3-8.2-19.8c0-7.5,2.9-14.5,8.2-19.8C32.2,101.2,39.2,98.2,46.7,98.2"/>
	<path class="st0" d="M46.6,88.7C25.9,88.7,9,105.6,9,126.4C9,147.1,25.8,164,46.6,164c20.8,0,37.6-16.8,37.6-37.6V97.2
		c0-4.7-3.8-8.5-8.5-8.5H46.6L46.6,88.7L46.6,88.7L46.6,88.7z"/>
	<path class="st0" d="M134.7,9.8c7.6,0,14.7,3,20.1,8.3c5.4,5.4,8.3,12.5,8.3,20.1c0,7.6-3,14.7-8.3,20.1
		c-5.4,5.4-12.5,8.3-20.1,8.3l-28.4,0V38.3c0-7.6,3-14.7,8.3-20.1C120,12.8,127.1,9.8,134.7,9.8"/>
	<path class="st0" d="M134.4,1c-20.8,0-37.6,16.8-37.6,37.6v29.2c0,4.7,3.8,8.5,8.5,8.5h29.2c20.8,0,37.6-16.8,37.6-37.6
		C172,17.8,155.1,1,134.4,1L134.4,1L134.4,1L134.4,1z"/>
	<path class="st0" d="M134.4,98.1L134.4,98.1c7.5,0,14.6,2.9,20,8.3c5.3,5.3,8.3,12.4,8.3,20c0,7.5-2.9,14.6-8.3,20
		c-5.3,5.3-12.4,8.3-20,8.3c-7.5,0-14.6-2.9-20-8.3c-5.3-5.3-8.3-12.4-8.3-20V98.1H134.4"/>
	<path class="st0" d="M134.4,88.7h-29.2c-4.7,0-8.5,3.8-8.5,8.5v29.2c0,20.8,16.8,37.6,37.6,37.6c20.8,0,37.6-16.8,37.6-37.6
		C172,105.6,155.1,88.7,134.4,88.7L134.4,88.7L134.4,88.7L134.4,88.7z"/>
</g>
</svg>
