<?xml version="1.0" encoding="utf-8"?>
<!-- Generator: Adobe Illustrator 21.0.0, SVG Export Plug-In . SVG Version: 6.00 Build 0)  -->
<svg version="1.1" id="图层_1" xmlns="http://www.w3.org/2000/svg" xmlns:xlink="http://www.w3.org/1999/xlink" x="0px" y="0px"
	 viewBox="0 0 181 164" style="enable-background:new 0 0 181 164;" xml:space="preserve">
<style type="text/css">
	.st0{fill:#8A8A8A;}
</style>
<path class="st0" d="M45.8,9c7.7,0,14.9,3,20.4,8.4c5.4,5.4,8.4,12.7,8.4,20.4v28.8H45.8c-7.7,0-14.9-3-20.4-8.4
	C20,52.8,17,45.5,17,37.8c0-7.7,3-14.9,8.4-20.4C30.9,12,38.2,9,45.8,9 M45.9,0C25,0,8,17,8,37.9c0,20.9,17,37.9,37.9,37.9h29.3
	c4.7,0,8.5-3.8,8.5-8.5V37.9C83.7,17,66.8,0,45.9,0L45.9,0L45.9,0L45.9,0z M46,97.8L46,97.8h28.2V126c0,7.5-2.9,14.6-8.3,19.9
	c-5.3,5.3-12.4,8.3-19.9,8.3c-7.5,0-14.6-2.9-19.9-8.3c-5.3-5.3-8.3-12.4-8.3-19.9c0-7.5,2.9-14.6,8.3-19.9
	C31.3,100.8,38.4,97.8,46,97.8 M45.9,88.3C25,88.3,8,105.2,8,126.1C8,147,25,164,45.9,164c20.9,0,37.9-17,37.9-37.9l0-29.3
	c0-4.7-3.8-8.5-8.5-8.5H45.9L45.9,88.3L45.9,88.3L45.9,88.3z M134.5,8.9c7.6,0,14.8,3,20.2,8.4c5.4,5.4,8.4,12.6,8.4,20.2
	c0,7.6-3,14.8-8.4,20.2c-5.4,5.4-12.6,8.4-20.2,8.4h-28.6V37.5c0-7.6,3-14.8,8.4-20.2C119.7,11.9,126.9,8.9,134.5,8.9 M134.1,0
	c-20.9,0-37.9,17-37.9,37.9v29.3c0,4.7,3.8,8.5,8.5,8.5h29.3c20.9,0,37.9-17,37.9-37.9C172,17,155,0,134.1,0L134.1,0L134.1,0
	L134.1,0z M134.1,97.7L134.1,97.7c7.6,0,14.7,3,20.1,8.3c5.4,5.4,8.3,12.5,8.3,20.1c0,7.6-3,14.7-8.3,20.1
	c-5.4,5.4-12.5,8.3-20.1,8.3c-7.6,0-14.7-3-20.1-8.3c-5.4-5.4-8.3-12.5-8.3-20.1V97.7H134.1 M134.1,88.3h-29.3
	c-4.7,0-8.5,3.8-8.5,8.5v29.3c0,20.9,17,37.9,37.9,37.9c20.9,0,37.9-17,37.9-37.9C172,105.2,155,88.3,134.1,88.3L134.1,88.3
	L134.1,88.3L134.1,88.3z"/>
</svg>
