<?xml version="1.0" encoding="utf-8"?>
<!-- Generator: Adobe Illustrator 21.0.0, SVG Export Plug-In . SVG Version: 6.00 Build 0)  -->
<svg version="1.1" id="图层_1" xmlns="http://www.w3.org/2000/svg" xmlns:xlink="http://www.w3.org/1999/xlink" x="0px" y="0px"
	 viewBox="0 0 181 164" style="enable-background:new 0 0 181 164;" xml:space="preserve">
<style type="text/css">
	.st0{fill:#0090FF;}
</style>
<path class="st0" d="M178.6,83.7L90.3,1L1.9,83.5c-1.7,1.6-1.8,4.3-0.2,6.1c1.6,1.7,4.3,1.8,6.1,0.2l82.5-77L172.8,90
	c0.8,0.7,1.8,1.2,2.9,1.2c1.2,0,2.3-0.5,3.1-1.3C180.5,88.1,180.4,85.4,178.6,83.7L178.6,83.7z"/>
<path class="st0" d="M151.7,85.4c-2.4,0-4.3,1.9-4.3,4.3v65.7h-34.3v-45.7H67.4v45.7H33.2V89.7c0-2.4-1.9-4.3-4.3-4.3
	c-2.4,0-4.3,1.9-4.3,4.3V164H76v-45.7h28.6V164h51.4V89.7C156,87.3,154.1,85.4,151.7,85.4L151.7,85.4z"/>
<path class="st0" d="M30.4,156.1h39.5v-43.7h38.3v43.7h42.6V88.3h23.6L90.3,8.5L3.1,87.2L30,88.3L30.4,156.1z"/>
<path class="st0" d="M120.9,24.8h25.5v22.7c0,2.4,1.9,4.3,4.3,4.3c2.3,0,4.3-1.9,4.3-4.3V16.3h-34c-2.4,0-4.3,1.9-4.3,4.3
	C116.6,22.9,118.5,24.8,120.9,24.8L120.9,24.8L120.9,24.8z"/>
</svg>
