<?xml version="1.0" encoding="utf-8"?>
<!-- Generator: Adobe Illustrator 21.0.0, SVG Export Plug-In . SVG Version: 6.00 Build 0)  -->
<svg version="1.1" id="图层_1" xmlns="http://www.w3.org/2000/svg" xmlns:xlink="http://www.w3.org/1999/xlink" x="0px" y="0px"
	 viewBox="0 0 181 164" style="enable-background:new 0 0 181 164;" xml:space="preserve">
<style type="text/css">
	.st0{fill:#8A8A8A;}
</style>
<path class="st0" d="M179.9,82.7L91.4,0L2.9,82.5c-1.7,1.6-1.8,4.3-0.2,6.1c1.6,1.7,4.3,1.8,6.1,0.2l82.6-77L174,89
	c0.8,0.8,1.9,1.2,2.9,1.2c1.1,0,2.3-0.5,3.1-1.4C181.7,87.1,181.6,84.3,179.9,82.7L179.9,82.7L179.9,82.7z"/>
<path class="st0" d="M152.9,84.4c-2.4,0-4.3,1.9-4.3,4.3v65.7h-34.3v-45.7H68.5v45.7H34.2V88.7c0-2.4-1.9-4.3-4.3-4.3
	c-2.4,0-4.3,1.9-4.3,4.3V163h51.5v-45.7h28.6V163h51.5V88.7C157.2,86.4,155.2,84.4,152.9,84.4L152.9,84.4L152.9,84.4z"/>
<path class="st0" d="M122.8,23h25.7v22.9c0,2.4,1.9,4.3,4.3,4.3c2.4,0,4.3-1.9,4.3-4.3V14.4h-34.3c-2.4,0-4.3,1.9-4.3,4.3
	C118.5,21.1,120.5,23,122.8,23L122.8,23L122.8,23z"/>
</svg>
